<svg width="120" height="27" viewBox="0 0 120 27" fill="none" xmlns="http://www.w3.org/2000/svg">
<g clip-path="url(#clip0_202_6)">
<path d="M37.4741 4.17338C37.2543 3.36665 36.8255 2.6312 36.2305 2.04027C35.6354 1.44934 34.8948 1.02356 34.0825 0.805347C31.1085 0 19.1404 0 19.1404 0C19.1404 0 7.17183 0.0244397 4.19832 0.829787C3.38603 1.04804 2.64549 1.47383 2.05047 2.06476C1.45544 2.65568 1.02669 3.39112 0.806926 4.19782C-0.0926037 9.44538 -0.441587 17.4409 0.831535 22.4783C1.0513 23.285 1.48005 24.0204 2.07507 24.6113C2.6701 25.2023 3.41064 25.6281 4.22293 25.8463C7.19668 26.6516 19.165 26.6516 19.165 26.6516C19.165 26.6516 31.1333 26.6516 34.1071 25.8463C34.9194 25.6281 35.6599 25.2023 36.2549 24.6113C36.85 24.0204 37.2787 23.285 37.4985 22.4783C38.447 17.2235 38.7395 9.23287 37.4739 4.17361" fill="#FF0000"/>
<path d="M15.3311 19.0369L25.2597 13.3259L15.3311 7.61469V19.0369Z" fill="white"/>
<path d="M115.133 7.73687C116.436 7.73687 117.419 7.9808 118.107 8.44446C118.795 8.90827 119.286 9.64052 119.581 10.6412C119.876 11.6419 119.999 13.0084 119.999 14.7657V17.6214H113.683V18.4998L113.782 20.9161C113.855 21.4531 113.978 21.8436 114.175 22.0876C114.372 22.3317 114.691 22.4537 115.109 22.4537C115.674 22.4537 116.067 22.2342 116.264 21.795C116.485 21.3556 116.583 20.6233 116.608 19.6227L119.876 19.818C119.901 19.9644 119.901 20.1596 119.901 20.4036C119.901 21.9412 119.483 23.0884 118.623 23.8449C117.763 24.6014 116.583 24.9919 115.035 24.9919C113.167 24.9919 111.865 24.4063 111.127 23.2593C110.39 22.112 109.997 20.3058 109.997 17.8898V14.9365C110.08 10.7876 110.815 7.74898 115.133 7.73687ZM69.6927 8.05412V20.2816C69.6927 21.0139 69.7663 21.5508 69.9384 21.8681C70.2873 22.5466 71.1918 22.3732 71.6833 22.0389C71.9669 21.8484 72.1956 21.5876 72.3468 21.2825V8.05389H76.1069V24.7233H73.1577L72.8383 22.6732H72.7647C71.9537 24.2108 70.7493 24.9917 69.152 24.9917C66.6934 24.9856 66.0918 23.2265 65.9486 21.4398L65.9392 21.3139C65.9215 21.0433 65.9111 20.7723 65.9081 20.5011V8.05412H69.6927ZM89.083 8.05412V20.2816C89.083 21.0139 89.1566 21.5508 89.3286 21.8681C89.6779 22.5466 90.5821 22.3732 91.0736 22.0389C91.3572 21.8484 91.5859 21.5876 91.7371 21.2825V8.05389H95.4972V24.7233H92.548L92.2286 22.6732H92.155C91.344 24.2108 90.1396 24.9917 88.5423 24.9917C86.0837 24.9856 85.4821 23.2265 85.3389 21.4398L85.3295 21.3139C85.3118 21.0433 85.3014 20.7723 85.2983 20.5011V8.05412H89.083ZM58.781 7.73687C60.0098 7.73687 61.0174 7.9808 61.7547 8.49334C62.4918 9.00587 63.0571 9.78701 63.4012 10.8607C63.7452 11.9347 63.9173 13.3745 63.9173 15.1563V17.5723C63.9173 19.3541 63.7452 20.7697 63.4012 21.8434C63.0571 22.9176 62.5164 23.6985 61.7547 24.211C60.993 24.6991 59.9606 24.9675 58.6828 24.9675C57.3555 24.9919 56.3233 24.7236 55.5616 24.2355C54.7999 23.7229 54.2589 22.9418 53.9397 21.8681C53.62 20.7941 53.4726 19.3785 53.4726 17.597V15.1805C53.4726 13.3987 53.6446 11.9344 54.0133 10.8605C54.382 9.76234 54.9471 8.9812 55.7336 8.49334C56.5199 8.00501 57.5275 7.73664 58.781 7.73664M101.395 1.0495V9.83565H101.42C101.764 9.20116 102.206 8.68862 102.821 8.29805C103.395 7.91506 104.071 7.71113 104.762 7.71243C105.672 7.71243 106.36 7.95636 106.876 8.42002C107.392 8.90835 107.761 9.66481 107.982 10.7143C108.196 11.731 108.318 13.1371 108.325 14.9102L108.326 15.0832V17.7189C108.326 20.1838 108.006 22.0145 107.416 23.186C106.802 24.3574 105.868 24.9433 104.59 24.9433C103.878 24.9433 103.239 24.7724 102.649 24.4552C102.127 24.1532 101.695 23.7204 101.395 23.2002L101.346 23.1126H101.273L100.879 24.6991H97.7582V1.04973L101.395 1.0495ZM86.3549 1.90372V4.92981H82.6194V24.7233H78.9332V4.93004H75.1731V1.90395L86.3549 1.90372ZM45.8294 1.90372L45.8318 1.91303C45.8676 2.07154 46.3645 4.26529 46.911 6.8212L46.9542 7.0237L47.0193 7.32978L47.0629 7.53531L47.0847 7.63842L47.1283 7.84511L47.1501 7.94868L47.1935 8.15607L47.2568 8.45936C47.6259 10.2292 47.9782 12.0043 48.1889 13.277H48.2873C48.4891 12.1353 48.7823 10.6743 49.095 9.18253L49.177 8.7929C49.2181 8.59769 49.2595 8.40279 49.3012 8.20821L49.3654 7.90632C49.79 5.92947 50.2273 3.95533 50.6772 1.98402L50.6842 1.9526L50.6955 1.90372H54.4556L50.1056 17.3042V24.6991H46.3947V17.3284H46.3701L42.0693 1.90349L45.8294 1.90372ZM58.7071 10.3237C58.191 10.3237 57.847 10.5924 57.626 11.1538C57.4049 11.7152 57.3065 12.5692 57.3065 13.7653V18.9637C57.3065 20.1841 57.4047 21.0869 57.6013 21.6242C57.7981 22.161 58.1667 22.4295 58.7071 22.4295C59.2232 22.4295 59.5919 22.161 59.8131 21.6242C60.0344 21.0869 60.1326 20.1841 60.1326 18.9637V13.7651C60.1326 12.5692 60.0342 11.6905 59.8131 11.1535C59.5919 10.5924 59.2232 10.3237 58.7071 10.3237ZM102.059 10.8121C101.759 11.0867 101.546 11.4254 101.42 11.8488L101.395 11.9347V21.4042C101.7 21.9167 102.133 22.2584 102.894 22.2829C103.288 22.2829 103.607 22.1365 103.853 21.8436C104.099 21.5508 104.271 21.0627 104.369 20.3791C104.463 19.7232 104.513 18.8198 104.516 17.6689V15.3516C104.516 14.0337 104.467 13.0331 104.394 12.3252C104.295 11.6174 104.173 11.1049 103.951 10.8121C103.524 10.2018 102.6 10.2092 102.059 10.8121ZM115.06 10.2507C114.642 10.275 114.347 10.3971 114.175 10.6168C113.978 10.8607 113.855 11.2268 113.782 11.7638C113.709 12.2899 113.684 14.1286 113.683 14.2022V15.4004H116.436V14.3437V14.364C116.434 14.7334 116.426 14.1496 116.409 13.4329L116.407 13.3366C116.392 12.7067 116.369 12.0045 116.338 11.7638C116.264 11.2024 116.141 10.8118 115.944 10.5924C115.748 10.3726 115.453 10.2507 115.059 10.2507" fill="#282828"/>
</g>
<defs>
<clipPath id="clip0_202_6">
<rect width="120" height="27" fill="white"/>
</clipPath>
</defs>
</svg>
